# xmcd
#
# Track frame offsets:
#	150
#	20610
#	31087
#	49040
#	67787
#	77945
#	91125
#	106305
#	119355
#	133357
#	147060
#	185590
#	212597
#	224215
#	238137
#	250472
#
# Disc length: 3493
#
# Revision: 1
# Processed by: cddbd v1.5.1PL0 Copyright (c) Steve Scherf et al.
# Submitted via: CDex 1.50beta8
# Normalized: r0:DSETVAR1,TDELIM( - )
#
DISCID=ec0da310
DTITLE=Various Artist - The jazz collection Vol. 1
DYEAR=1993
DGENRE=Jazz
TTITLE0=Herbie Hancock - Jammin' with Herbie
TTITLE1=Miles David - Cool Blues
TTITLE2=Louis Armstrong - La Vie En Rose
TTITLE3=Freddy Hubbard - Chantized
TTITLE4=Billie Holiday - Lover Come Back To Me
TTITLE5=Sarah Vaughan - That Old Black Magic
TTITLE6=The Dorsey Brothers - Boogie Woogie
TTITLE7=Dionne Warwick - Walk On By
TTITLE8=Charlie Parker - A Night In Tunisia
TTITLE9=Nina Simone - Ain't Got No - I've Got Live
TTITLE10=George Benson - All The Things You Are
TTITLE11=Lena Horne - Frankie and Johnny
TTITLE12=Frankie Vaughan - Hello Dolly
TTITLE13=Ray Charles - Sitting On Top Of The World
TTITLE14=Ella Fitzgerald - Sing Song Swing
TTITLE15=Glenn Miller - In The Mood
EXTD=YEAR: 1993
EXTT0=
EXTT1=
EXTT2=
EXTT3=
EXTT4=
EXTT5=
EXTT6=
EXTT7=
EXTT8=
EXTT9=
EXTT10=
EXTT11=
EXTT12=
EXTT13=
EXTT14=
EXTT15=
PLAYORDER=
